<svg width="1024" height="1024" viewBox="0 0 1024 1024" fill="none" xmlns="http://www.w3.org/2000/svg">
  <defs>
    <linearGradient id="grad1" x1="0%" y1="0%" x2="100%" y2="100%">
      <stop offset="0%" style="stop-color:#667eea;stop-opacity:1" />
      <stop offset="100%" style="stop-color:#764ba2;stop-opacity:1" />
    </linearGradient>
  </defs>
  
  <!-- Background circle -->
  <circle cx="512" cy="512" r="512" fill="url(#grad1)"/>
  
  <!-- Basketball -->
  <circle cx="512" cy="400" r="120" fill="#ff6b35" stroke="#fff" stroke-width="8"/>
  
  <!-- Basketball lines -->
  <path d="M 392 400 L 632 400" stroke="#fff" stroke-width="6" fill="none"/>
  <path d="M 512 280 L 512 520" stroke="#fff" stroke-width="6" fill="none"/>
  <path d="M 392 280 Q 512 340 632 280" stroke="#fff" stroke-width="6" fill="none"/>
  <path d="M 392 520 Q 512 460 632 520" stroke="#fff" stroke-width="6" fill="none"/>
  
  <!-- Trophy -->
  <g transform="translate(512, 650)">
    <!-- Trophy base -->
      <rect x="-40" y="20" width="80" height="20" rx="10" fill="#ffd700"/>
      <rect x="-30" y="0" width="60" height="20" rx="10" fill="#ffd700"/>
      
      <!-- Trophy cup -->
      <path d="M -25 0 Q -25 -40 0 -60 Q 25 -40 25 0" fill="#ffd700" stroke="#daa520" stroke-width="3"/>
      
      <!-- Trophy handles -->
      <path d="M -25 -20 Q -35 -30 -35 -40 Q -35 -50 -25 -50" fill="none" stroke="#daa520" stroke-width="4"/>
      <path d="M 25 -20 Q 35 -30 35 -40 Q 35 -50 25 -50" fill="none" stroke="#daa520" stroke-width="4"/>
  </g>
  
  <!-- Quiz text -->
  <text x="512" y="780" text-anchor="middle" fill="white" font-family="Arial, sans-serif" font-size="48" font-weight="bold">QUIZ</text>
</svg> 